<svg xmlns="http://www.w3.org/2000/svg" version="1.1" xmlns:xlink="http://www.w3.org/1999/xlink" xmlns:svgjs="http://svgjs.com/svgjs" width="1440" height="560" preserveAspectRatio="none" viewBox="0 0 1440 560"><g mask="url(&quot;#SvgjsMask1005&quot;)" fill="none"><rect width="1440" height="560" x="0" y="0" fill="rgba(58, 58, 62, 1)"></rect><path d="M0,540.782C104,539.441,218.012,528.609,294.243,457.851C367.96,389.427,353.076,271.692,390.49,178.331C425.533,90.886,502.862,21.231,506.931,-72.886C511.346,-175,485.113,-285.352,413.696,-358.47C343.265,-430.578,231.026,-429.142,133.624,-455.082C38.978,-480.288,-52.896,-525.823,-149.279,-508.399C-250.721,-490.061,-343.298,-433.867,-411.471,-356.542C-479.97,-278.848,-527.677,-179.789,-530.288,-76.244C-532.777,22.437,-464.098,103.462,-425.362,194.256C-385.42,287.877,-378.075,401.218,-299.162,465.505C-217.791,531.795,-104.946,542.136,0,540.782" fill="#2e2e32"></path><path d="M1440 1014.012C1523.552 1012.991 1572.626 920.895 1642.037 874.376 1709.715 829.019 1812.135 819.437 1842.895 743.996 1873.743 668.337 1805.066 590.013 1790.781 509.565 1777.127 432.671 1793.134 353.092 1760.855 281.978 1721.2 194.615 1681.358 76.22500000000002 1586.776 60.12700000000001 1489.155 43.51099999999997 1432.305 182.31099999999998 1337.192 209.868 1241.499 237.59300000000002 1118.117 150.178 1044.452 217.25599999999997 973.169 282.165 1024.666 403.23900000000003 1019.129 499.488 1014.139 586.217 970.642 679.215 1013.528 754.763 1056.174 829.887 1160.95 834.4780000000001 1234.766 879.35 1306.129 922.731 1356.492 1015.0319999999999 1440 1014.012" fill="#46464a"></path></g><defs><mask id="SvgjsMask1005"><rect width="1440" height="560" fill="#ffffff"></rect></mask></defs></svg>